M48
; DRILL file {KiCad 5.1.2-f72e74a~84~ubuntu18.04.1} date Tue 30 Apr 2019 01:25:11 BST
; FORMAT={-:-/ absolute / inch / decimal}
; #@! TF.CreationDate,2019-04-30T01:25:11+01:00
; #@! TF.GenerationSoftware,Kicad,Pcbnew,5.1.2-f72e74a~84~ubuntu18.04.1
; #@! TF.FileFunction,Plated,1,2,PTH
FMAT,2
INCH
T1C0.0118
T2C0.0157
%
G90
G05
T1
X4.7362Y-4.9055
X5.0079Y-4.7323
X5.0827Y-4.7323
X5.1496Y-4.9094
X5.2323Y-4.7402
X5.2402Y-4.6063
X5.2402Y-4.7756
X5.3071Y-4.7402
X5.3071Y-4.7756
X5.311Y-4.8465
X5.3307Y-4.6457
X5.3465Y-4.8465
X5.3543Y-4.6811
X5.374Y-4.5984
X5.4134Y-4.7992
X5.4449Y-4.5394
X5.5079Y-4.6142
X5.6575Y-4.7992
X5.6693Y-4.8307
X5.6693Y-4.8661
X5.7205Y-4.5472
X5.7598Y-4.5472
X5.7638Y-4.9016
T2
X4.8031Y-4.5551
X4.8307Y-4.7874
X4.9331Y-4.6732
X4.9331Y-4.7835
X5.0Y-4.6772
X5.0591Y-4.6772
X5.1535Y-4.5591
X5.437Y-4.9016
X5.5079Y-4.9016
X5.5512Y-4.6496
X5.6102Y-4.6496
X5.6693Y-4.6496
X5.9055Y-4.6496
X5.9055Y-4.748
X6.0157Y-4.8661
X4.6319Y-4.6073
X4.6319Y-4.6407
X4.6319Y-4.6742
X4.6319Y-4.7077
X4.6319Y-4.7411
X4.6319Y-4.7746
X4.6319Y-4.8081
X4.6319Y-4.8415
X4.685Y-4.6073
X4.685Y-4.6407
X4.685Y-4.6742
X4.685Y-4.7077
X4.685Y-4.7411
X4.685Y-4.7746
X4.685Y-4.8081
X4.685Y-4.8415
T0
M30
