G04 #@! TF.GenerationSoftware,KiCad,Pcbnew,5.1.2-f72e74a~84~ubuntu18.04.1*
G04 #@! TF.CreationDate,2019-04-30T01:30:39+01:00*
G04 #@! TF.ProjectId,ffp,6666702e-6b69-4636-9164-5f7063625858,rev?*
G04 #@! TF.SameCoordinates,Original*
G04 #@! TF.FileFunction,Copper,L2,Bot*
G04 #@! TF.FilePolarity,Positive*
%FSLAX46Y46*%
G04 Gerber Fmt 4.6, Leading zero omitted, Abs format (unit mm)*
G04 Created by KiCad (PCBNEW 5.1.2-f72e74a~84~ubuntu18.04.1) date 2019-04-30 01:30:39*
%MOMM*%
%LPD*%
G04 APERTURE LIST*
%ADD10C,0.250000*%
%ADD11O,1.700000X0.900000*%
%ADD12O,2.400000X0.900000*%
%ADD13C,0.650000*%
%ADD14C,0.800000*%
%ADD15C,0.600000*%
%ADD16C,0.400000*%
%ADD17C,0.200000*%
G04 APERTURE END LIST*
D10*
X116227380Y-121714285D02*
X116275000Y-121666666D01*
X116322619Y-121571428D01*
X116322619Y-121333333D01*
X116275000Y-121238095D01*
X116227380Y-121190476D01*
X116132142Y-121142857D01*
X116036904Y-121142857D01*
X115894047Y-121190476D01*
X115322619Y-121761904D01*
X115322619Y-121142857D01*
X116322619Y-120523809D02*
X116322619Y-120428571D01*
X116275000Y-120333333D01*
X116227380Y-120285714D01*
X116132142Y-120238095D01*
X115941666Y-120190476D01*
X115703571Y-120190476D01*
X115513095Y-120238095D01*
X115417857Y-120285714D01*
X115370238Y-120333333D01*
X115322619Y-120428571D01*
X115322619Y-120523809D01*
X115370238Y-120619047D01*
X115417857Y-120666666D01*
X115513095Y-120714285D01*
X115703571Y-120761904D01*
X115941666Y-120761904D01*
X116132142Y-120714285D01*
X116227380Y-120666666D01*
X116275000Y-120619047D01*
X116322619Y-120523809D01*
X115322619Y-119238095D02*
X115322619Y-119809523D01*
X115322619Y-119523809D02*
X116322619Y-119523809D01*
X116179761Y-119619047D01*
X116084523Y-119714285D01*
X116036904Y-119809523D01*
X115322619Y-118761904D02*
X115322619Y-118571428D01*
X115370238Y-118476190D01*
X115417857Y-118428571D01*
X115560714Y-118333333D01*
X115751190Y-118285714D01*
X116132142Y-118285714D01*
X116227380Y-118333333D01*
X116275000Y-118380952D01*
X116322619Y-118476190D01*
X116322619Y-118666666D01*
X116275000Y-118761904D01*
X116227380Y-118809523D01*
X116132142Y-118857142D01*
X115894047Y-118857142D01*
X115798809Y-118809523D01*
X115751190Y-118761904D01*
X115703571Y-118666666D01*
X115703571Y-118476190D01*
X115751190Y-118380952D01*
X115798809Y-118333333D01*
X115894047Y-118285714D01*
X114572619Y-121476190D02*
X114572619Y-121380952D01*
X114525000Y-121285714D01*
X114477380Y-121238095D01*
X114382142Y-121190476D01*
X114191666Y-121142857D01*
X113953571Y-121142857D01*
X113763095Y-121190476D01*
X113667857Y-121238095D01*
X113620238Y-121285714D01*
X113572619Y-121380952D01*
X113572619Y-121476190D01*
X113620238Y-121571428D01*
X113667857Y-121619047D01*
X113763095Y-121666666D01*
X113953571Y-121714285D01*
X114191666Y-121714285D01*
X114382142Y-121666666D01*
X114477380Y-121619047D01*
X114525000Y-121571428D01*
X114572619Y-121476190D01*
X114239285Y-120285714D02*
X113572619Y-120285714D01*
X114620238Y-120523809D02*
X113905952Y-120761904D01*
X113905952Y-120142857D01*
X114572619Y-119857142D02*
X114572619Y-119238095D01*
X114191666Y-119571428D01*
X114191666Y-119428571D01*
X114144047Y-119333333D01*
X114096428Y-119285714D01*
X114001190Y-119238095D01*
X113763095Y-119238095D01*
X113667857Y-119285714D01*
X113620238Y-119333333D01*
X113572619Y-119428571D01*
X113572619Y-119714285D01*
X113620238Y-119809523D01*
X113667857Y-119857142D01*
X114572619Y-118619047D02*
X114572619Y-118523809D01*
X114525000Y-118428571D01*
X114477380Y-118380952D01*
X114382142Y-118333333D01*
X114191666Y-118285714D01*
X113953571Y-118285714D01*
X113763095Y-118333333D01*
X113667857Y-118380952D01*
X113620238Y-118428571D01*
X113572619Y-118523809D01*
X113572619Y-118619047D01*
X113620238Y-118714285D01*
X113667857Y-118761904D01*
X113763095Y-118809523D01*
X113953571Y-118857142D01*
X114191666Y-118857142D01*
X114382142Y-118809523D01*
X114477380Y-118761904D01*
X114525000Y-118714285D01*
X114572619Y-118619047D01*
D11*
X114640000Y-115675000D03*
X114640000Y-124325000D03*
D12*
X118020000Y-115675000D03*
X118020000Y-124325000D03*
D13*
X117650000Y-117025000D03*
X117650000Y-117875000D03*
X117650000Y-118725000D03*
X117650000Y-119575000D03*
X117650000Y-120425000D03*
X117650000Y-121275000D03*
X117650000Y-122125000D03*
X117650000Y-122975000D03*
X119000000Y-122975000D03*
X119000000Y-122125000D03*
X119000000Y-121275000D03*
X119000000Y-120425000D03*
X119000000Y-119575000D03*
X119000000Y-118725000D03*
X119000000Y-117875000D03*
X119000000Y-117025000D03*
D14*
X138100000Y-124500000D03*
X141000000Y-118100000D03*
X142500000Y-118100000D03*
X144000000Y-118100000D03*
X152800000Y-123600000D03*
X127000000Y-118800000D03*
X128500000Y-118800000D03*
X130900000Y-115800000D03*
D15*
X144000000Y-122700000D03*
D14*
X122700000Y-121600000D03*
X122000000Y-115700000D03*
X150000000Y-118100000D03*
X150000000Y-120600000D03*
X139900000Y-124500000D03*
D15*
X133100000Y-117000000D03*
X136000000Y-118900000D03*
D14*
X125300000Y-121500000D03*
X125300000Y-118700000D03*
D15*
X134900000Y-123100000D03*
X146400000Y-124500000D03*
X145300000Y-115500000D03*
X135400000Y-118000000D03*
X143700000Y-121900000D03*
X137500000Y-121900000D03*
X134800000Y-121300000D03*
X133100000Y-121300000D03*
X127200000Y-120200000D03*
X129100000Y-120200000D03*
X135800000Y-123100000D03*
X144000000Y-123600000D03*
X136500000Y-116800000D03*
X138300000Y-115300000D03*
X146300000Y-115500000D03*
X139900000Y-117200000D03*
X130800000Y-124700000D03*
X120300000Y-124600000D03*
X134800000Y-120400000D03*
X132900000Y-120400000D03*
D16*
X133100000Y-117000000D02*
X135000000Y-118900000D01*
X135000000Y-118900000D02*
X136000000Y-118900000D01*
X125300000Y-121500000D02*
X125300000Y-118700000D01*
D10*
X146400000Y-124500000D02*
X143900000Y-124500000D01*
X143900000Y-124500000D02*
X143000000Y-123600000D01*
X143000000Y-123600000D02*
X136400000Y-123600000D01*
X136400000Y-123600000D02*
X136100000Y-123900000D01*
X134900000Y-123100000D02*
X134900000Y-123700000D01*
X135100000Y-123900000D02*
X136100000Y-123900000D01*
X134900000Y-123700000D02*
X135100000Y-123900000D01*
X139200000Y-115500000D02*
X145300000Y-115500000D01*
X135400000Y-118000000D02*
X136700000Y-118000000D01*
X136700000Y-118000000D02*
X139200000Y-115500000D01*
X143700000Y-121900000D02*
X137500000Y-121900000D01*
X134800000Y-121300000D02*
X133100000Y-121300000D01*
D17*
X117650000Y-119575000D02*
X117875000Y-119575000D01*
X118725000Y-120425000D02*
X119000000Y-120425000D01*
X117875000Y-119575000D02*
X118725000Y-120425000D01*
D10*
X127200000Y-120200000D02*
X129100000Y-120200000D01*
X135800000Y-123100000D02*
X143500000Y-123100000D01*
X143500000Y-123100000D02*
X144000000Y-123600000D01*
X136800000Y-116800000D02*
X136500000Y-116800000D01*
X138300000Y-115300000D02*
X136800000Y-116800000D01*
X146300000Y-115500000D02*
X145600000Y-116200000D01*
X145600000Y-116200000D02*
X144900000Y-116200000D01*
X144900000Y-116200000D02*
X144700000Y-116000000D01*
X140675736Y-116000000D02*
X140900000Y-116000000D01*
X139900000Y-116775736D02*
X140675736Y-116000000D01*
X139900000Y-117200000D02*
X139900000Y-116775736D01*
X144700000Y-116000000D02*
X140900000Y-116000000D01*
X120300000Y-124600000D02*
X120599999Y-124899999D01*
X130600001Y-124899999D02*
X130800000Y-124700000D01*
X127900001Y-124899999D02*
X130600001Y-124899999D01*
X120599999Y-124899999D02*
X127900001Y-124899999D01*
X134800000Y-120400000D02*
X132900000Y-120400000D01*
G36*
X137575000Y-115228594D02*
G01*
X137575000Y-115247182D01*
X136717024Y-116105159D01*
X136711475Y-116102861D01*
X136571406Y-116075000D01*
X136428594Y-116075000D01*
X136288525Y-116102861D01*
X136156584Y-116157513D01*
X136037839Y-116236856D01*
X135936856Y-116337839D01*
X135857513Y-116456584D01*
X135802861Y-116588525D01*
X135775000Y-116728594D01*
X135775000Y-116871406D01*
X135802861Y-117011475D01*
X135857513Y-117143416D01*
X135936856Y-117262161D01*
X136037839Y-117363144D01*
X136156584Y-117442487D01*
X136174722Y-117450000D01*
X135875305Y-117450000D01*
X135862161Y-117436856D01*
X135743416Y-117357513D01*
X135611475Y-117302861D01*
X135471406Y-117275000D01*
X135328594Y-117275000D01*
X135188525Y-117302861D01*
X135056584Y-117357513D01*
X134937839Y-117436856D01*
X134836856Y-117537839D01*
X134757513Y-117656584D01*
X134723231Y-117739348D01*
X133803280Y-116819398D01*
X133797139Y-116788525D01*
X133742487Y-116656584D01*
X133663144Y-116537839D01*
X133562161Y-116436856D01*
X133443416Y-116357513D01*
X133311475Y-116302861D01*
X133171406Y-116275000D01*
X133028594Y-116275000D01*
X132888525Y-116302861D01*
X132756584Y-116357513D01*
X132637839Y-116436856D01*
X132536856Y-116537839D01*
X132457513Y-116656584D01*
X132402861Y-116788525D01*
X132375000Y-116928594D01*
X132375000Y-117071406D01*
X132402861Y-117211475D01*
X132457513Y-117343416D01*
X132536856Y-117462161D01*
X132637839Y-117563144D01*
X132756584Y-117642487D01*
X132888525Y-117697139D01*
X132919398Y-117703280D01*
X134536346Y-119320229D01*
X134555920Y-119344080D01*
X134651089Y-119422183D01*
X134759666Y-119480219D01*
X134877479Y-119515957D01*
X134969296Y-119525000D01*
X134969298Y-119525000D01*
X135000000Y-119528024D01*
X135030701Y-119525000D01*
X135630413Y-119525000D01*
X135656584Y-119542487D01*
X135788525Y-119597139D01*
X135928594Y-119625000D01*
X136071406Y-119625000D01*
X136211475Y-119597139D01*
X136343416Y-119542487D01*
X136462161Y-119463144D01*
X136563144Y-119362161D01*
X136642487Y-119243416D01*
X136697139Y-119111475D01*
X136725000Y-118971406D01*
X136725000Y-118828594D01*
X136697139Y-118688525D01*
X136642487Y-118556584D01*
X136638088Y-118550000D01*
X136672992Y-118550000D01*
X136700000Y-118552660D01*
X136727008Y-118550000D01*
X136727018Y-118550000D01*
X136807819Y-118542042D01*
X136911494Y-118510592D01*
X137007042Y-118459521D01*
X137090790Y-118390790D01*
X137108013Y-118369804D01*
X139427818Y-116050000D01*
X139847919Y-116050000D01*
X139530191Y-116367728D01*
X139509211Y-116384946D01*
X139491993Y-116405926D01*
X139491987Y-116405932D01*
X139440479Y-116468694D01*
X139401275Y-116542042D01*
X139389409Y-116564242D01*
X139357958Y-116667917D01*
X139352624Y-116722071D01*
X139336856Y-116737839D01*
X139257513Y-116856584D01*
X139202861Y-116988525D01*
X139175000Y-117128594D01*
X139175000Y-117271406D01*
X139202861Y-117411475D01*
X139257513Y-117543416D01*
X139336856Y-117662161D01*
X139437839Y-117763144D01*
X139556584Y-117842487D01*
X139688525Y-117897139D01*
X139828594Y-117925000D01*
X139971406Y-117925000D01*
X140111475Y-117897139D01*
X140243416Y-117842487D01*
X140362161Y-117763144D01*
X140463144Y-117662161D01*
X140542487Y-117543416D01*
X140597139Y-117411475D01*
X140625000Y-117271406D01*
X140625000Y-117128594D01*
X140597139Y-116988525D01*
X140558445Y-116895109D01*
X140903554Y-116550000D01*
X144472184Y-116550000D01*
X144491983Y-116569800D01*
X144509210Y-116590790D01*
X144592958Y-116659521D01*
X144688506Y-116710592D01*
X144792181Y-116742042D01*
X144872982Y-116750000D01*
X144872989Y-116750000D01*
X144900000Y-116752660D01*
X144927011Y-116750000D01*
X145572992Y-116750000D01*
X145600000Y-116752660D01*
X145627008Y-116750000D01*
X145627018Y-116750000D01*
X145707819Y-116742042D01*
X145811494Y-116710592D01*
X145907042Y-116659521D01*
X145990790Y-116590790D01*
X146008013Y-116569804D01*
X146352817Y-116225000D01*
X146371406Y-116225000D01*
X146511475Y-116197139D01*
X146643416Y-116142487D01*
X146762161Y-116063144D01*
X146863144Y-115962161D01*
X146942487Y-115843416D01*
X146997139Y-115711475D01*
X147025000Y-115571406D01*
X147025000Y-115428594D01*
X146997139Y-115288525D01*
X146942487Y-115156584D01*
X146938088Y-115150000D01*
X153250000Y-115150000D01*
X153250001Y-124850000D01*
X147038088Y-124850000D01*
X147042487Y-124843416D01*
X147097139Y-124711475D01*
X147125000Y-124571406D01*
X147125000Y-124428594D01*
X147097139Y-124288525D01*
X147042487Y-124156584D01*
X146963144Y-124037839D01*
X146862161Y-123936856D01*
X146743416Y-123857513D01*
X146611475Y-123802861D01*
X146471406Y-123775000D01*
X146328594Y-123775000D01*
X146188525Y-123802861D01*
X146056584Y-123857513D01*
X145937839Y-123936856D01*
X145924695Y-123950000D01*
X144638088Y-123950000D01*
X144642487Y-123943416D01*
X144697139Y-123811475D01*
X144725000Y-123671406D01*
X144725000Y-123528594D01*
X144697139Y-123388525D01*
X144642487Y-123256584D01*
X144563144Y-123137839D01*
X144462161Y-123036856D01*
X144343416Y-122957513D01*
X144211475Y-122902861D01*
X144071406Y-122875000D01*
X144052817Y-122875000D01*
X143908013Y-122730196D01*
X143890790Y-122709210D01*
X143807042Y-122640479D01*
X143776272Y-122624032D01*
X143911475Y-122597139D01*
X144043416Y-122542487D01*
X144162161Y-122463144D01*
X144263144Y-122362161D01*
X144342487Y-122243416D01*
X144397139Y-122111475D01*
X144425000Y-121971406D01*
X144425000Y-121828594D01*
X144397139Y-121688525D01*
X144342487Y-121556584D01*
X144263144Y-121437839D01*
X144162161Y-121336856D01*
X144043416Y-121257513D01*
X143911475Y-121202861D01*
X143771406Y-121175000D01*
X143628594Y-121175000D01*
X143488525Y-121202861D01*
X143356584Y-121257513D01*
X143237839Y-121336856D01*
X143224695Y-121350000D01*
X137975305Y-121350000D01*
X137962161Y-121336856D01*
X137843416Y-121257513D01*
X137711475Y-121202861D01*
X137571406Y-121175000D01*
X137428594Y-121175000D01*
X137288525Y-121202861D01*
X137156584Y-121257513D01*
X137037839Y-121336856D01*
X136936856Y-121437839D01*
X136857513Y-121556584D01*
X136802861Y-121688525D01*
X136775000Y-121828594D01*
X136775000Y-121971406D01*
X136802861Y-122111475D01*
X136857513Y-122243416D01*
X136936856Y-122362161D01*
X137037839Y-122463144D01*
X137156584Y-122542487D01*
X137174722Y-122550000D01*
X136275305Y-122550000D01*
X136262161Y-122536856D01*
X136143416Y-122457513D01*
X136011475Y-122402861D01*
X135871406Y-122375000D01*
X135728594Y-122375000D01*
X135588525Y-122402861D01*
X135456584Y-122457513D01*
X135350000Y-122528730D01*
X135243416Y-122457513D01*
X135111475Y-122402861D01*
X134971406Y-122375000D01*
X134828594Y-122375000D01*
X134688525Y-122402861D01*
X134556584Y-122457513D01*
X134437839Y-122536856D01*
X134336856Y-122637839D01*
X134257513Y-122756584D01*
X134202861Y-122888525D01*
X134175000Y-123028594D01*
X134175000Y-123171406D01*
X134202861Y-123311475D01*
X134257513Y-123443416D01*
X134336856Y-123562161D01*
X134350000Y-123575305D01*
X134350000Y-123672992D01*
X134347340Y-123700000D01*
X134350000Y-123727008D01*
X134350000Y-123727018D01*
X134357958Y-123807819D01*
X134381206Y-123884453D01*
X134389409Y-123911494D01*
X134440479Y-124007042D01*
X134491987Y-124069804D01*
X134491993Y-124069810D01*
X134509211Y-124090790D01*
X134530192Y-124108009D01*
X134691983Y-124269800D01*
X134709210Y-124290790D01*
X134792958Y-124359521D01*
X134888506Y-124410592D01*
X134992181Y-124442042D01*
X135072982Y-124450000D01*
X135072989Y-124450000D01*
X135100000Y-124452660D01*
X135127011Y-124450000D01*
X136072992Y-124450000D01*
X136100000Y-124452660D01*
X136127008Y-124450000D01*
X136127018Y-124450000D01*
X136207819Y-124442042D01*
X136311494Y-124410592D01*
X136407042Y-124359521D01*
X136418644Y-124349999D01*
X136469804Y-124308013D01*
X136490790Y-124290790D01*
X136508013Y-124269804D01*
X136627817Y-124150000D01*
X142772183Y-124150000D01*
X143472182Y-124850000D01*
X131509367Y-124850000D01*
X131525000Y-124771406D01*
X131525000Y-124628594D01*
X131497139Y-124488525D01*
X131442487Y-124356584D01*
X131363144Y-124237839D01*
X131262161Y-124136856D01*
X131143416Y-124057513D01*
X131011475Y-124002861D01*
X130871406Y-123975000D01*
X130728594Y-123975000D01*
X130588525Y-124002861D01*
X130456584Y-124057513D01*
X130337839Y-124136856D01*
X130236856Y-124237839D01*
X130161913Y-124349999D01*
X122320795Y-124349999D01*
X122349453Y-124280813D01*
X122385000Y-124102105D01*
X122385000Y-123919895D01*
X122349453Y-123741187D01*
X122279725Y-123572848D01*
X122178495Y-123421347D01*
X122049653Y-123292505D01*
X121898152Y-123191275D01*
X121729813Y-123121547D01*
X121551105Y-123086000D01*
X121368895Y-123086000D01*
X121190187Y-123121547D01*
X121021848Y-123191275D01*
X120870347Y-123292505D01*
X120741505Y-123421347D01*
X120640275Y-123572848D01*
X120570547Y-123741187D01*
X120536340Y-123913160D01*
X120511475Y-123902861D01*
X120371406Y-123875000D01*
X120228594Y-123875000D01*
X120088525Y-123902861D01*
X119956584Y-123957513D01*
X119837839Y-124036856D01*
X119736856Y-124137839D01*
X119657513Y-124256584D01*
X119645380Y-124285876D01*
X119632339Y-124153470D01*
X119582305Y-123988532D01*
X119501056Y-123836524D01*
X119391712Y-123703288D01*
X119327192Y-123650338D01*
X119414869Y-123604157D01*
X119422503Y-123599058D01*
X119439747Y-123450102D01*
X119125000Y-123135355D01*
X119125000Y-123064645D01*
X119475102Y-123414747D01*
X119624058Y-123397503D01*
X119694493Y-123267637D01*
X119738239Y-123126525D01*
X119753615Y-122979591D01*
X119740030Y-122832480D01*
X119698006Y-122690846D01*
X119629157Y-122560131D01*
X119624058Y-122552497D01*
X119616924Y-122551671D01*
X119664641Y-122480258D01*
X119721178Y-122343767D01*
X119750000Y-122198869D01*
X119750000Y-122051131D01*
X119721178Y-121906233D01*
X119713583Y-121887895D01*
X120535000Y-121887895D01*
X120535000Y-122070105D01*
X120570547Y-122248813D01*
X120640275Y-122417152D01*
X120741505Y-122568653D01*
X120870347Y-122697495D01*
X121021848Y-122798725D01*
X121190187Y-122868453D01*
X121368895Y-122904000D01*
X121551105Y-122904000D01*
X121551632Y-122903895D01*
X125615000Y-122903895D01*
X125615000Y-123086105D01*
X125650547Y-123264813D01*
X125720275Y-123433152D01*
X125821505Y-123584653D01*
X125950347Y-123713495D01*
X126101848Y-123814725D01*
X126270187Y-123884453D01*
X126448895Y-123920000D01*
X126631105Y-123920000D01*
X126809813Y-123884453D01*
X126978152Y-123814725D01*
X127129653Y-123713495D01*
X127258495Y-123584653D01*
X127359725Y-123433152D01*
X127429453Y-123264813D01*
X127465000Y-123086105D01*
X127465000Y-122903895D01*
X127429453Y-122725187D01*
X127359725Y-122556848D01*
X127258495Y-122405347D01*
X127129653Y-122276505D01*
X126978152Y-122175275D01*
X126809813Y-122105547D01*
X126631105Y-122070000D01*
X126448895Y-122070000D01*
X126270187Y-122105547D01*
X126101848Y-122175275D01*
X125950347Y-122276505D01*
X125821505Y-122405347D01*
X125720275Y-122556848D01*
X125650547Y-122725187D01*
X125615000Y-122903895D01*
X121551632Y-122903895D01*
X121729813Y-122868453D01*
X121898152Y-122798725D01*
X122049653Y-122697495D01*
X122178495Y-122568653D01*
X122279725Y-122417152D01*
X122349453Y-122248813D01*
X122385000Y-122070105D01*
X122385000Y-121887895D01*
X122349453Y-121709187D01*
X122279725Y-121540848D01*
X122178495Y-121389347D01*
X122049653Y-121260505D01*
X121898152Y-121159275D01*
X121729813Y-121089547D01*
X121551105Y-121054000D01*
X121368895Y-121054000D01*
X121190187Y-121089547D01*
X121021848Y-121159275D01*
X120870347Y-121260505D01*
X120741505Y-121389347D01*
X120640275Y-121540848D01*
X120570547Y-121709187D01*
X120535000Y-121887895D01*
X119713583Y-121887895D01*
X119664641Y-121769742D01*
X119618041Y-121700000D01*
X119664641Y-121630258D01*
X119721178Y-121493767D01*
X119750000Y-121348869D01*
X119750000Y-121201131D01*
X119721178Y-121056233D01*
X119664641Y-120919742D01*
X119618041Y-120850000D01*
X119664641Y-120780258D01*
X119721178Y-120643767D01*
X119750000Y-120498869D01*
X119750000Y-120351131D01*
X119721178Y-120206233D01*
X119664641Y-120069742D01*
X119618041Y-120000000D01*
X119664641Y-119930258D01*
X119721178Y-119793767D01*
X119750000Y-119648869D01*
X119750000Y-119501131D01*
X119721178Y-119356233D01*
X119664641Y-119219742D01*
X119618041Y-119150000D01*
X119664641Y-119080258D01*
X119721178Y-118943767D01*
X119750000Y-118798869D01*
X119750000Y-118651131D01*
X119743559Y-118618745D01*
X124475000Y-118618745D01*
X124475000Y-118781255D01*
X124506704Y-118940644D01*
X124568894Y-119090784D01*
X124659181Y-119225907D01*
X124675001Y-119241727D01*
X124675000Y-120958274D01*
X124659181Y-120974093D01*
X124568894Y-121109216D01*
X124506704Y-121259356D01*
X124475000Y-121418745D01*
X124475000Y-121581255D01*
X124506704Y-121740644D01*
X124568894Y-121890784D01*
X124659181Y-122025907D01*
X124774093Y-122140819D01*
X124909216Y-122231106D01*
X125059356Y-122293296D01*
X125218745Y-122325000D01*
X125381255Y-122325000D01*
X125540644Y-122293296D01*
X125690784Y-122231106D01*
X125825907Y-122140819D01*
X125940819Y-122025907D01*
X126031106Y-121890784D01*
X126093296Y-121740644D01*
X126125000Y-121581255D01*
X126125000Y-121418745D01*
X126093296Y-121259356D01*
X126031106Y-121109216D01*
X125940819Y-120974093D01*
X125925000Y-120958274D01*
X125925000Y-120128594D01*
X126475000Y-120128594D01*
X126475000Y-120271406D01*
X126502861Y-120411475D01*
X126557513Y-120543416D01*
X126636856Y-120662161D01*
X126737839Y-120763144D01*
X126856584Y-120842487D01*
X126988525Y-120897139D01*
X127128594Y-120925000D01*
X127271406Y-120925000D01*
X127411475Y-120897139D01*
X127543416Y-120842487D01*
X127662161Y-120763144D01*
X127675305Y-120750000D01*
X128624695Y-120750000D01*
X128637839Y-120763144D01*
X128756584Y-120842487D01*
X128888525Y-120897139D01*
X129028594Y-120925000D01*
X129171406Y-120925000D01*
X129311475Y-120897139D01*
X129443416Y-120842487D01*
X129562161Y-120763144D01*
X129663144Y-120662161D01*
X129742487Y-120543416D01*
X129797139Y-120411475D01*
X129813624Y-120328594D01*
X132175000Y-120328594D01*
X132175000Y-120471406D01*
X132202861Y-120611475D01*
X132257513Y-120743416D01*
X132336856Y-120862161D01*
X132437839Y-120963144D01*
X132451120Y-120972018D01*
X132402861Y-121088525D01*
X132375000Y-121228594D01*
X132375000Y-121371406D01*
X132402861Y-121511475D01*
X132457513Y-121643416D01*
X132536856Y-121762161D01*
X132637839Y-121863144D01*
X132756584Y-121942487D01*
X132888525Y-121997139D01*
X133028594Y-122025000D01*
X133171406Y-122025000D01*
X133311475Y-121997139D01*
X133443416Y-121942487D01*
X133562161Y-121863144D01*
X133575305Y-121850000D01*
X134324695Y-121850000D01*
X134337839Y-121863144D01*
X134456584Y-121942487D01*
X134588525Y-121997139D01*
X134728594Y-122025000D01*
X134871406Y-122025000D01*
X135011475Y-121997139D01*
X135143416Y-121942487D01*
X135262161Y-121863144D01*
X135363144Y-121762161D01*
X135442487Y-121643416D01*
X135497139Y-121511475D01*
X135525000Y-121371406D01*
X135525000Y-121228594D01*
X135497139Y-121088525D01*
X135442487Y-120956584D01*
X135371270Y-120850000D01*
X135442487Y-120743416D01*
X135497139Y-120611475D01*
X135525000Y-120471406D01*
X135525000Y-120328594D01*
X135497139Y-120188525D01*
X135442487Y-120056584D01*
X135363144Y-119937839D01*
X135262161Y-119836856D01*
X135143416Y-119757513D01*
X135011475Y-119702861D01*
X134871406Y-119675000D01*
X134728594Y-119675000D01*
X134588525Y-119702861D01*
X134456584Y-119757513D01*
X134337839Y-119836856D01*
X134324695Y-119850000D01*
X133375305Y-119850000D01*
X133362161Y-119836856D01*
X133243416Y-119757513D01*
X133111475Y-119702861D01*
X132971406Y-119675000D01*
X132828594Y-119675000D01*
X132688525Y-119702861D01*
X132556584Y-119757513D01*
X132437839Y-119836856D01*
X132336856Y-119937839D01*
X132257513Y-120056584D01*
X132202861Y-120188525D01*
X132175000Y-120328594D01*
X129813624Y-120328594D01*
X129825000Y-120271406D01*
X129825000Y-120128594D01*
X129797139Y-119988525D01*
X129742487Y-119856584D01*
X129663144Y-119737839D01*
X129562161Y-119636856D01*
X129443416Y-119557513D01*
X129311475Y-119502861D01*
X129171406Y-119475000D01*
X129028594Y-119475000D01*
X128888525Y-119502861D01*
X128756584Y-119557513D01*
X128637839Y-119636856D01*
X128624695Y-119650000D01*
X127675305Y-119650000D01*
X127662161Y-119636856D01*
X127543416Y-119557513D01*
X127411475Y-119502861D01*
X127271406Y-119475000D01*
X127128594Y-119475000D01*
X126988525Y-119502861D01*
X126856584Y-119557513D01*
X126737839Y-119636856D01*
X126636856Y-119737839D01*
X126557513Y-119856584D01*
X126502861Y-119988525D01*
X126475000Y-120128594D01*
X125925000Y-120128594D01*
X125925000Y-119241726D01*
X125940819Y-119225907D01*
X126031106Y-119090784D01*
X126093296Y-118940644D01*
X126125000Y-118781255D01*
X126125000Y-118618745D01*
X126093296Y-118459356D01*
X126031106Y-118309216D01*
X125940819Y-118174093D01*
X125825907Y-118059181D01*
X125690784Y-117968894D01*
X125540644Y-117906704D01*
X125381255Y-117875000D01*
X125218745Y-117875000D01*
X125059356Y-117906704D01*
X124909216Y-117968894D01*
X124774093Y-118059181D01*
X124659181Y-118174093D01*
X124568894Y-118309216D01*
X124506704Y-118459356D01*
X124475000Y-118618745D01*
X119743559Y-118618745D01*
X119721178Y-118506233D01*
X119664641Y-118369742D01*
X119618041Y-118300000D01*
X119664641Y-118230258D01*
X119721178Y-118093767D01*
X119750000Y-117948869D01*
X119750000Y-117801131D01*
X119721178Y-117656233D01*
X119664641Y-117519742D01*
X119616924Y-117448329D01*
X119624058Y-117447503D01*
X119694493Y-117317637D01*
X119738239Y-117176525D01*
X119753615Y-117029591D01*
X119740030Y-116882480D01*
X119698006Y-116740846D01*
X119629157Y-116610131D01*
X119624058Y-116602497D01*
X119475102Y-116585253D01*
X119125000Y-116935355D01*
X119125000Y-116864645D01*
X119439747Y-116549898D01*
X119422503Y-116400942D01*
X119327496Y-116349413D01*
X119391712Y-116296712D01*
X119501056Y-116163476D01*
X119582305Y-116011468D01*
X119632339Y-115846530D01*
X119649233Y-115675000D01*
X119632339Y-115503470D01*
X119582305Y-115338532D01*
X119501056Y-115186524D01*
X119471082Y-115150000D01*
X137590633Y-115150000D01*
X137575000Y-115228594D01*
X137575000Y-115228594D01*
G37*
X137575000Y-115228594D02*
X137575000Y-115247182D01*
X136717024Y-116105159D01*
X136711475Y-116102861D01*
X136571406Y-116075000D01*
X136428594Y-116075000D01*
X136288525Y-116102861D01*
X136156584Y-116157513D01*
X136037839Y-116236856D01*
X135936856Y-116337839D01*
X135857513Y-116456584D01*
X135802861Y-116588525D01*
X135775000Y-116728594D01*
X135775000Y-116871406D01*
X135802861Y-117011475D01*
X135857513Y-117143416D01*
X135936856Y-117262161D01*
X136037839Y-117363144D01*
X136156584Y-117442487D01*
X136174722Y-117450000D01*
X135875305Y-117450000D01*
X135862161Y-117436856D01*
X135743416Y-117357513D01*
X135611475Y-117302861D01*
X135471406Y-117275000D01*
X135328594Y-117275000D01*
X135188525Y-117302861D01*
X135056584Y-117357513D01*
X134937839Y-117436856D01*
X134836856Y-117537839D01*
X134757513Y-117656584D01*
X134723231Y-117739348D01*
X133803280Y-116819398D01*
X133797139Y-116788525D01*
X133742487Y-116656584D01*
X133663144Y-116537839D01*
X133562161Y-116436856D01*
X133443416Y-116357513D01*
X133311475Y-116302861D01*
X133171406Y-116275000D01*
X133028594Y-116275000D01*
X132888525Y-116302861D01*
X132756584Y-116357513D01*
X132637839Y-116436856D01*
X132536856Y-116537839D01*
X132457513Y-116656584D01*
X132402861Y-116788525D01*
X132375000Y-116928594D01*
X132375000Y-117071406D01*
X132402861Y-117211475D01*
X132457513Y-117343416D01*
X132536856Y-117462161D01*
X132637839Y-117563144D01*
X132756584Y-117642487D01*
X132888525Y-117697139D01*
X132919398Y-117703280D01*
X134536346Y-119320229D01*
X134555920Y-119344080D01*
X134651089Y-119422183D01*
X134759666Y-119480219D01*
X134877479Y-119515957D01*
X134969296Y-119525000D01*
X134969298Y-119525000D01*
X135000000Y-119528024D01*
X135030701Y-119525000D01*
X135630413Y-119525000D01*
X135656584Y-119542487D01*
X135788525Y-119597139D01*
X135928594Y-119625000D01*
X136071406Y-119625000D01*
X136211475Y-119597139D01*
X136343416Y-119542487D01*
X136462161Y-119463144D01*
X136563144Y-119362161D01*
X136642487Y-119243416D01*
X136697139Y-119111475D01*
X136725000Y-118971406D01*
X136725000Y-118828594D01*
X136697139Y-118688525D01*
X136642487Y-118556584D01*
X136638088Y-118550000D01*
X136672992Y-118550000D01*
X136700000Y-118552660D01*
X136727008Y-118550000D01*
X136727018Y-118550000D01*
X136807819Y-118542042D01*
X136911494Y-118510592D01*
X137007042Y-118459521D01*
X137090790Y-118390790D01*
X137108013Y-118369804D01*
X139427818Y-116050000D01*
X139847919Y-116050000D01*
X139530191Y-116367728D01*
X139509211Y-116384946D01*
X139491993Y-116405926D01*
X139491987Y-116405932D01*
X139440479Y-116468694D01*
X139401275Y-116542042D01*
X139389409Y-116564242D01*
X139357958Y-116667917D01*
X139352624Y-116722071D01*
X139336856Y-116737839D01*
X139257513Y-116856584D01*
X139202861Y-116988525D01*
X139175000Y-117128594D01*
X139175000Y-117271406D01*
X139202861Y-117411475D01*
X139257513Y-117543416D01*
X139336856Y-117662161D01*
X139437839Y-117763144D01*
X139556584Y-117842487D01*
X139688525Y-117897139D01*
X139828594Y-117925000D01*
X139971406Y-117925000D01*
X140111475Y-117897139D01*
X140243416Y-117842487D01*
X140362161Y-117763144D01*
X140463144Y-117662161D01*
X140542487Y-117543416D01*
X140597139Y-117411475D01*
X140625000Y-117271406D01*
X140625000Y-117128594D01*
X140597139Y-116988525D01*
X140558445Y-116895109D01*
X140903554Y-116550000D01*
X144472184Y-116550000D01*
X144491983Y-116569800D01*
X144509210Y-116590790D01*
X144592958Y-116659521D01*
X144688506Y-116710592D01*
X144792181Y-116742042D01*
X144872982Y-116750000D01*
X144872989Y-116750000D01*
X144900000Y-116752660D01*
X144927011Y-116750000D01*
X145572992Y-116750000D01*
X145600000Y-116752660D01*
X145627008Y-116750000D01*
X145627018Y-116750000D01*
X145707819Y-116742042D01*
X145811494Y-116710592D01*
X145907042Y-116659521D01*
X145990790Y-116590790D01*
X146008013Y-116569804D01*
X146352817Y-116225000D01*
X146371406Y-116225000D01*
X146511475Y-116197139D01*
X146643416Y-116142487D01*
X146762161Y-116063144D01*
X146863144Y-115962161D01*
X146942487Y-115843416D01*
X146997139Y-115711475D01*
X147025000Y-115571406D01*
X147025000Y-115428594D01*
X146997139Y-115288525D01*
X146942487Y-115156584D01*
X146938088Y-115150000D01*
X153250000Y-115150000D01*
X153250001Y-124850000D01*
X147038088Y-124850000D01*
X147042487Y-124843416D01*
X147097139Y-124711475D01*
X147125000Y-124571406D01*
X147125000Y-124428594D01*
X147097139Y-124288525D01*
X147042487Y-124156584D01*
X146963144Y-124037839D01*
X146862161Y-123936856D01*
X146743416Y-123857513D01*
X146611475Y-123802861D01*
X146471406Y-123775000D01*
X146328594Y-123775000D01*
X146188525Y-123802861D01*
X146056584Y-123857513D01*
X145937839Y-123936856D01*
X145924695Y-123950000D01*
X144638088Y-123950000D01*
X144642487Y-123943416D01*
X144697139Y-123811475D01*
X144725000Y-123671406D01*
X144725000Y-123528594D01*
X144697139Y-123388525D01*
X144642487Y-123256584D01*
X144563144Y-123137839D01*
X144462161Y-123036856D01*
X144343416Y-122957513D01*
X144211475Y-122902861D01*
X144071406Y-122875000D01*
X144052817Y-122875000D01*
X143908013Y-122730196D01*
X143890790Y-122709210D01*
X143807042Y-122640479D01*
X143776272Y-122624032D01*
X143911475Y-122597139D01*
X144043416Y-122542487D01*
X144162161Y-122463144D01*
X144263144Y-122362161D01*
X144342487Y-122243416D01*
X144397139Y-122111475D01*
X144425000Y-121971406D01*
X144425000Y-121828594D01*
X144397139Y-121688525D01*
X144342487Y-121556584D01*
X144263144Y-121437839D01*
X144162161Y-121336856D01*
X144043416Y-121257513D01*
X143911475Y-121202861D01*
X143771406Y-121175000D01*
X143628594Y-121175000D01*
X143488525Y-121202861D01*
X143356584Y-121257513D01*
X143237839Y-121336856D01*
X143224695Y-121350000D01*
X137975305Y-121350000D01*
X137962161Y-121336856D01*
X137843416Y-121257513D01*
X137711475Y-121202861D01*
X137571406Y-121175000D01*
X137428594Y-121175000D01*
X137288525Y-121202861D01*
X137156584Y-121257513D01*
X137037839Y-121336856D01*
X136936856Y-121437839D01*
X136857513Y-121556584D01*
X136802861Y-121688525D01*
X136775000Y-121828594D01*
X136775000Y-121971406D01*
X136802861Y-122111475D01*
X136857513Y-122243416D01*
X136936856Y-122362161D01*
X137037839Y-122463144D01*
X137156584Y-122542487D01*
X137174722Y-122550000D01*
X136275305Y-122550000D01*
X136262161Y-122536856D01*
X136143416Y-122457513D01*
X136011475Y-122402861D01*
X135871406Y-122375000D01*
X135728594Y-122375000D01*
X135588525Y-122402861D01*
X135456584Y-122457513D01*
X135350000Y-122528730D01*
X135243416Y-122457513D01*
X135111475Y-122402861D01*
X134971406Y-122375000D01*
X134828594Y-122375000D01*
X134688525Y-122402861D01*
X134556584Y-122457513D01*
X134437839Y-122536856D01*
X134336856Y-122637839D01*
X134257513Y-122756584D01*
X134202861Y-122888525D01*
X134175000Y-123028594D01*
X134175000Y-123171406D01*
X134202861Y-123311475D01*
X134257513Y-123443416D01*
X134336856Y-123562161D01*
X134350000Y-123575305D01*
X134350000Y-123672992D01*
X134347340Y-123700000D01*
X134350000Y-123727008D01*
X134350000Y-123727018D01*
X134357958Y-123807819D01*
X134381206Y-123884453D01*
X134389409Y-123911494D01*
X134440479Y-124007042D01*
X134491987Y-124069804D01*
X134491993Y-124069810D01*
X134509211Y-124090790D01*
X134530192Y-124108009D01*
X134691983Y-124269800D01*
X134709210Y-124290790D01*
X134792958Y-124359521D01*
X134888506Y-124410592D01*
X134992181Y-124442042D01*
X135072982Y-124450000D01*
X135072989Y-124450000D01*
X135100000Y-124452660D01*
X135127011Y-124450000D01*
X136072992Y-124450000D01*
X136100000Y-124452660D01*
X136127008Y-124450000D01*
X136127018Y-124450000D01*
X136207819Y-124442042D01*
X136311494Y-124410592D01*
X136407042Y-124359521D01*
X136418644Y-124349999D01*
X136469804Y-124308013D01*
X136490790Y-124290790D01*
X136508013Y-124269804D01*
X136627817Y-124150000D01*
X142772183Y-124150000D01*
X143472182Y-124850000D01*
X131509367Y-124850000D01*
X131525000Y-124771406D01*
X131525000Y-124628594D01*
X131497139Y-124488525D01*
X131442487Y-124356584D01*
X131363144Y-124237839D01*
X131262161Y-124136856D01*
X131143416Y-124057513D01*
X131011475Y-124002861D01*
X130871406Y-123975000D01*
X130728594Y-123975000D01*
X130588525Y-124002861D01*
X130456584Y-124057513D01*
X130337839Y-124136856D01*
X130236856Y-124237839D01*
X130161913Y-124349999D01*
X122320795Y-124349999D01*
X122349453Y-124280813D01*
X122385000Y-124102105D01*
X122385000Y-123919895D01*
X122349453Y-123741187D01*
X122279725Y-123572848D01*
X122178495Y-123421347D01*
X122049653Y-123292505D01*
X121898152Y-123191275D01*
X121729813Y-123121547D01*
X121551105Y-123086000D01*
X121368895Y-123086000D01*
X121190187Y-123121547D01*
X121021848Y-123191275D01*
X120870347Y-123292505D01*
X120741505Y-123421347D01*
X120640275Y-123572848D01*
X120570547Y-123741187D01*
X120536340Y-123913160D01*
X120511475Y-123902861D01*
X120371406Y-123875000D01*
X120228594Y-123875000D01*
X120088525Y-123902861D01*
X119956584Y-123957513D01*
X119837839Y-124036856D01*
X119736856Y-124137839D01*
X119657513Y-124256584D01*
X119645380Y-124285876D01*
X119632339Y-124153470D01*
X119582305Y-123988532D01*
X119501056Y-123836524D01*
X119391712Y-123703288D01*
X119327192Y-123650338D01*
X119414869Y-123604157D01*
X119422503Y-123599058D01*
X119439747Y-123450102D01*
X119125000Y-123135355D01*
X119125000Y-123064645D01*
X119475102Y-123414747D01*
X119624058Y-123397503D01*
X119694493Y-123267637D01*
X119738239Y-123126525D01*
X119753615Y-122979591D01*
X119740030Y-122832480D01*
X119698006Y-122690846D01*
X119629157Y-122560131D01*
X119624058Y-122552497D01*
X119616924Y-122551671D01*
X119664641Y-122480258D01*
X119721178Y-122343767D01*
X119750000Y-122198869D01*
X119750000Y-122051131D01*
X119721178Y-121906233D01*
X119713583Y-121887895D01*
X120535000Y-121887895D01*
X120535000Y-122070105D01*
X120570547Y-122248813D01*
X120640275Y-122417152D01*
X120741505Y-122568653D01*
X120870347Y-122697495D01*
X121021848Y-122798725D01*
X121190187Y-122868453D01*
X121368895Y-122904000D01*
X121551105Y-122904000D01*
X121551632Y-122903895D01*
X125615000Y-122903895D01*
X125615000Y-123086105D01*
X125650547Y-123264813D01*
X125720275Y-123433152D01*
X125821505Y-123584653D01*
X125950347Y-123713495D01*
X126101848Y-123814725D01*
X126270187Y-123884453D01*
X126448895Y-123920000D01*
X126631105Y-123920000D01*
X126809813Y-123884453D01*
X126978152Y-123814725D01*
X127129653Y-123713495D01*
X127258495Y-123584653D01*
X127359725Y-123433152D01*
X127429453Y-123264813D01*
X127465000Y-123086105D01*
X127465000Y-122903895D01*
X127429453Y-122725187D01*
X127359725Y-122556848D01*
X127258495Y-122405347D01*
X127129653Y-122276505D01*
X126978152Y-122175275D01*
X126809813Y-122105547D01*
X126631105Y-122070000D01*
X126448895Y-122070000D01*
X126270187Y-122105547D01*
X126101848Y-122175275D01*
X125950347Y-122276505D01*
X125821505Y-122405347D01*
X125720275Y-122556848D01*
X125650547Y-122725187D01*
X125615000Y-122903895D01*
X121551632Y-122903895D01*
X121729813Y-122868453D01*
X121898152Y-122798725D01*
X122049653Y-122697495D01*
X122178495Y-122568653D01*
X122279725Y-122417152D01*
X122349453Y-122248813D01*
X122385000Y-122070105D01*
X122385000Y-121887895D01*
X122349453Y-121709187D01*
X122279725Y-121540848D01*
X122178495Y-121389347D01*
X122049653Y-121260505D01*
X121898152Y-121159275D01*
X121729813Y-121089547D01*
X121551105Y-121054000D01*
X121368895Y-121054000D01*
X121190187Y-121089547D01*
X121021848Y-121159275D01*
X120870347Y-121260505D01*
X120741505Y-121389347D01*
X120640275Y-121540848D01*
X120570547Y-121709187D01*
X120535000Y-121887895D01*
X119713583Y-121887895D01*
X119664641Y-121769742D01*
X119618041Y-121700000D01*
X119664641Y-121630258D01*
X119721178Y-121493767D01*
X119750000Y-121348869D01*
X119750000Y-121201131D01*
X119721178Y-121056233D01*
X119664641Y-120919742D01*
X119618041Y-120850000D01*
X119664641Y-120780258D01*
X119721178Y-120643767D01*
X119750000Y-120498869D01*
X119750000Y-120351131D01*
X119721178Y-120206233D01*
X119664641Y-120069742D01*
X119618041Y-120000000D01*
X119664641Y-119930258D01*
X119721178Y-119793767D01*
X119750000Y-119648869D01*
X119750000Y-119501131D01*
X119721178Y-119356233D01*
X119664641Y-119219742D01*
X119618041Y-119150000D01*
X119664641Y-119080258D01*
X119721178Y-118943767D01*
X119750000Y-118798869D01*
X119750000Y-118651131D01*
X119743559Y-118618745D01*
X124475000Y-118618745D01*
X124475000Y-118781255D01*
X124506704Y-118940644D01*
X124568894Y-119090784D01*
X124659181Y-119225907D01*
X124675001Y-119241727D01*
X124675000Y-120958274D01*
X124659181Y-120974093D01*
X124568894Y-121109216D01*
X124506704Y-121259356D01*
X124475000Y-121418745D01*
X124475000Y-121581255D01*
X124506704Y-121740644D01*
X124568894Y-121890784D01*
X124659181Y-122025907D01*
X124774093Y-122140819D01*
X124909216Y-122231106D01*
X125059356Y-122293296D01*
X125218745Y-122325000D01*
X125381255Y-122325000D01*
X125540644Y-122293296D01*
X125690784Y-122231106D01*
X125825907Y-122140819D01*
X125940819Y-122025907D01*
X126031106Y-121890784D01*
X126093296Y-121740644D01*
X126125000Y-121581255D01*
X126125000Y-121418745D01*
X126093296Y-121259356D01*
X126031106Y-121109216D01*
X125940819Y-120974093D01*
X125925000Y-120958274D01*
X125925000Y-120128594D01*
X126475000Y-120128594D01*
X126475000Y-120271406D01*
X126502861Y-120411475D01*
X126557513Y-120543416D01*
X126636856Y-120662161D01*
X126737839Y-120763144D01*
X126856584Y-120842487D01*
X126988525Y-120897139D01*
X127128594Y-120925000D01*
X127271406Y-120925000D01*
X127411475Y-120897139D01*
X127543416Y-120842487D01*
X127662161Y-120763144D01*
X127675305Y-120750000D01*
X128624695Y-120750000D01*
X128637839Y-120763144D01*
X128756584Y-120842487D01*
X128888525Y-120897139D01*
X129028594Y-120925000D01*
X129171406Y-120925000D01*
X129311475Y-120897139D01*
X129443416Y-120842487D01*
X129562161Y-120763144D01*
X129663144Y-120662161D01*
X129742487Y-120543416D01*
X129797139Y-120411475D01*
X129813624Y-120328594D01*
X132175000Y-120328594D01*
X132175000Y-120471406D01*
X132202861Y-120611475D01*
X132257513Y-120743416D01*
X132336856Y-120862161D01*
X132437839Y-120963144D01*
X132451120Y-120972018D01*
X132402861Y-121088525D01*
X132375000Y-121228594D01*
X132375000Y-121371406D01*
X132402861Y-121511475D01*
X132457513Y-121643416D01*
X132536856Y-121762161D01*
X132637839Y-121863144D01*
X132756584Y-121942487D01*
X132888525Y-121997139D01*
X133028594Y-122025000D01*
X133171406Y-122025000D01*
X133311475Y-121997139D01*
X133443416Y-121942487D01*
X133562161Y-121863144D01*
X133575305Y-121850000D01*
X134324695Y-121850000D01*
X134337839Y-121863144D01*
X134456584Y-121942487D01*
X134588525Y-121997139D01*
X134728594Y-122025000D01*
X134871406Y-122025000D01*
X135011475Y-121997139D01*
X135143416Y-121942487D01*
X135262161Y-121863144D01*
X135363144Y-121762161D01*
X135442487Y-121643416D01*
X135497139Y-121511475D01*
X135525000Y-121371406D01*
X135525000Y-121228594D01*
X135497139Y-121088525D01*
X135442487Y-120956584D01*
X135371270Y-120850000D01*
X135442487Y-120743416D01*
X135497139Y-120611475D01*
X135525000Y-120471406D01*
X135525000Y-120328594D01*
X135497139Y-120188525D01*
X135442487Y-120056584D01*
X135363144Y-119937839D01*
X135262161Y-119836856D01*
X135143416Y-119757513D01*
X135011475Y-119702861D01*
X134871406Y-119675000D01*
X134728594Y-119675000D01*
X134588525Y-119702861D01*
X134456584Y-119757513D01*
X134337839Y-119836856D01*
X134324695Y-119850000D01*
X133375305Y-119850000D01*
X133362161Y-119836856D01*
X133243416Y-119757513D01*
X133111475Y-119702861D01*
X132971406Y-119675000D01*
X132828594Y-119675000D01*
X132688525Y-119702861D01*
X132556584Y-119757513D01*
X132437839Y-119836856D01*
X132336856Y-119937839D01*
X132257513Y-120056584D01*
X132202861Y-120188525D01*
X132175000Y-120328594D01*
X129813624Y-120328594D01*
X129825000Y-120271406D01*
X129825000Y-120128594D01*
X129797139Y-119988525D01*
X129742487Y-119856584D01*
X129663144Y-119737839D01*
X129562161Y-119636856D01*
X129443416Y-119557513D01*
X129311475Y-119502861D01*
X129171406Y-119475000D01*
X129028594Y-119475000D01*
X128888525Y-119502861D01*
X128756584Y-119557513D01*
X128637839Y-119636856D01*
X128624695Y-119650000D01*
X127675305Y-119650000D01*
X127662161Y-119636856D01*
X127543416Y-119557513D01*
X127411475Y-119502861D01*
X127271406Y-119475000D01*
X127128594Y-119475000D01*
X126988525Y-119502861D01*
X126856584Y-119557513D01*
X126737839Y-119636856D01*
X126636856Y-119737839D01*
X126557513Y-119856584D01*
X126502861Y-119988525D01*
X126475000Y-120128594D01*
X125925000Y-120128594D01*
X125925000Y-119241726D01*
X125940819Y-119225907D01*
X126031106Y-119090784D01*
X126093296Y-118940644D01*
X126125000Y-118781255D01*
X126125000Y-118618745D01*
X126093296Y-118459356D01*
X126031106Y-118309216D01*
X125940819Y-118174093D01*
X125825907Y-118059181D01*
X125690784Y-117968894D01*
X125540644Y-117906704D01*
X125381255Y-117875000D01*
X125218745Y-117875000D01*
X125059356Y-117906704D01*
X124909216Y-117968894D01*
X124774093Y-118059181D01*
X124659181Y-118174093D01*
X124568894Y-118309216D01*
X124506704Y-118459356D01*
X124475000Y-118618745D01*
X119743559Y-118618745D01*
X119721178Y-118506233D01*
X119664641Y-118369742D01*
X119618041Y-118300000D01*
X119664641Y-118230258D01*
X119721178Y-118093767D01*
X119750000Y-117948869D01*
X119750000Y-117801131D01*
X119721178Y-117656233D01*
X119664641Y-117519742D01*
X119616924Y-117448329D01*
X119624058Y-117447503D01*
X119694493Y-117317637D01*
X119738239Y-117176525D01*
X119753615Y-117029591D01*
X119740030Y-116882480D01*
X119698006Y-116740846D01*
X119629157Y-116610131D01*
X119624058Y-116602497D01*
X119475102Y-116585253D01*
X119125000Y-116935355D01*
X119125000Y-116864645D01*
X119439747Y-116549898D01*
X119422503Y-116400942D01*
X119327496Y-116349413D01*
X119391712Y-116296712D01*
X119501056Y-116163476D01*
X119582305Y-116011468D01*
X119632339Y-115846530D01*
X119649233Y-115675000D01*
X119632339Y-115503470D01*
X119582305Y-115338532D01*
X119501056Y-115186524D01*
X119471082Y-115150000D01*
X137590633Y-115150000D01*
X137575000Y-115228594D01*
M02*
