G04 #@! TF.GenerationSoftware,KiCad,Pcbnew,5.1.2-f72e74a~84~ubuntu18.04.1*
G04 #@! TF.CreationDate,2019-04-30T01:30:39+01:00*
G04 #@! TF.ProjectId,ffp,6666702e-6b69-4636-9164-5f7063625858,rev?*
G04 #@! TF.SameCoordinates,Original*
G04 #@! TF.FileFunction,Legend,Top*
G04 #@! TF.FilePolarity,Positive*
%FSLAX46Y46*%
G04 Gerber Fmt 4.6, Leading zero omitted, Abs format (unit mm)*
G04 Created by KiCad (PCBNEW 5.1.2-f72e74a~84~ubuntu18.04.1) date 2019-04-30 01:30:39*
%MOMM*%
%LPD*%
G04 APERTURE LIST*
%ADD10C,0.120000*%
%ADD11C,0.150000*%
%ADD12R,0.990000X1.040000*%
%ADD13R,1.040000X0.990000*%
%ADD14C,1.040000*%
%ADD15C,0.827000*%
%ADD16R,2.830000X0.780000*%
%ADD17O,1.740000X0.940000*%
%ADD18O,2.440000X0.940000*%
%ADD19C,0.690000*%
%ADD20R,1.140000X0.640000*%
%ADD21R,1.040000X0.640000*%
%ADD22R,0.540000X1.240000*%
%ADD23R,1.240000X0.540000*%
G04 APERTURE END LIST*
D10*
X152200000Y-123000000D02*
X152700000Y-123700000D01*
X151700000Y-123700000D02*
X152200000Y-123000000D01*
D11*
X139842857Y-117652380D02*
X139842857Y-116985714D01*
X139842857Y-117176190D02*
X139890476Y-117080952D01*
X139938095Y-117033333D01*
X140033333Y-116985714D01*
X140128571Y-116985714D01*
X140985714Y-117652380D02*
X140414285Y-117652380D01*
X140700000Y-117652380D02*
X140700000Y-116652380D01*
X140604761Y-116795238D01*
X140509523Y-116890476D01*
X140414285Y-116938095D01*
X142128571Y-117366666D02*
X142604761Y-117366666D01*
X142033333Y-117652380D02*
X142366666Y-116652380D01*
X142700000Y-117652380D01*
X143557142Y-116700000D02*
X143461904Y-116652380D01*
X143319047Y-116652380D01*
X143176190Y-116700000D01*
X143080952Y-116795238D01*
X143033333Y-116890476D01*
X142985714Y-117080952D01*
X142985714Y-117223809D01*
X143033333Y-117414285D01*
X143080952Y-117509523D01*
X143176190Y-117604761D01*
X143319047Y-117652380D01*
X143414285Y-117652380D01*
X143557142Y-117604761D01*
X143604761Y-117557142D01*
X143604761Y-117223809D01*
X143414285Y-117223809D01*
X140321428Y-115692857D02*
X139821428Y-115692857D01*
X139821428Y-116478571D02*
X139821428Y-114978571D01*
X140535714Y-114978571D01*
X141607142Y-115692857D02*
X141107142Y-115692857D01*
X141107142Y-116478571D02*
X141107142Y-114978571D01*
X141821428Y-114978571D01*
X142392857Y-116478571D02*
X142392857Y-114978571D01*
X142964285Y-114978571D01*
X143107142Y-115050000D01*
X143178571Y-115121428D01*
X143250000Y-115264285D01*
X143250000Y-115478571D01*
X143178571Y-115621428D01*
X143107142Y-115692857D01*
X142964285Y-115764285D01*
X142392857Y-115764285D01*
X148125000Y-115175000D02*
X148125000Y-115825000D01*
X147875000Y-115175000D02*
X148125000Y-115175000D01*
X147875000Y-115825000D02*
X147875000Y-115175000D01*
X148125000Y-115825000D02*
X147875000Y-115825000D01*
X151875000Y-115825000D02*
X151875000Y-115175000D01*
X152125000Y-115500000D02*
X151875000Y-115175000D01*
X152125000Y-115500000D02*
X151875000Y-115825000D01*
X148125000Y-124175000D02*
X148125000Y-124825000D01*
X147875000Y-124175000D02*
X148125000Y-124175000D01*
X147875000Y-124825000D02*
X147875000Y-124175000D01*
X148125000Y-124825000D02*
X147875000Y-124825000D01*
X140675000Y-123375000D02*
X141325000Y-123375000D01*
X140675000Y-123625000D02*
X140675000Y-123375000D01*
X141325000Y-123625000D02*
X140675000Y-123625000D01*
X141325000Y-123375000D02*
X141325000Y-123625000D01*
X149500000Y-123100000D02*
X149500000Y-116900000D01*
X150400000Y-123100000D02*
X150400000Y-121100000D01*
X150400000Y-116900000D02*
X150400000Y-118900000D01*
X149500000Y-116900000D02*
X150400000Y-116900000D01*
X149500000Y-123100000D02*
X150400000Y-123100000D01*
X113700000Y-115650000D02*
X113000000Y-115650000D01*
X113650000Y-124350000D02*
X113000000Y-124350000D01*
X116700000Y-124350000D02*
X115600000Y-124350000D01*
X116700000Y-115650000D02*
X115600000Y-115650000D01*
X119450000Y-115650000D02*
X119300000Y-115650000D01*
X119450000Y-124350000D02*
X119300000Y-124350000D01*
X119450000Y-115650000D02*
X119450000Y-124350000D01*
X143750000Y-123050000D02*
X144250000Y-122550000D01*
X143750000Y-124450000D02*
X143750000Y-123050000D01*
X144250000Y-124450000D02*
X143750000Y-124450000D01*
X144250000Y-122550000D02*
X144250000Y-124450000D01*
X144250000Y-122550000D02*
X144250000Y-122550000D01*
X124150000Y-117350000D02*
X123850000Y-117650000D01*
X124150000Y-115750000D02*
X124150000Y-117350000D01*
X123850000Y-115750000D02*
X124150000Y-115750000D01*
X123850000Y-117650000D02*
X123850000Y-115750000D01*
X123850000Y-117650000D02*
X123850000Y-117650000D01*
X137600000Y-122500000D02*
X137000000Y-123100000D01*
X137600000Y-116900000D02*
X137600000Y-122500000D01*
X131400000Y-116900000D02*
X137600000Y-116900000D01*
X131400000Y-123100000D02*
X131400000Y-116900000D01*
X137000000Y-123100000D02*
X131400000Y-123100000D01*
X151875000Y-124825000D02*
X151875000Y-124175000D01*
X152125000Y-124825000D02*
X151875000Y-124825000D01*
X152125000Y-124175000D02*
X152125000Y-124825000D01*
X151875000Y-124175000D02*
X152125000Y-124175000D01*
X126675000Y-116875000D02*
X127325000Y-116875000D01*
X126675000Y-117125000D02*
X126675000Y-116875000D01*
X127325000Y-117125000D02*
X126675000Y-117125000D01*
X127325000Y-116875000D02*
X127325000Y-117125000D01*
X121325000Y-117125000D02*
X120675000Y-117125000D01*
X121325000Y-116875000D02*
X121325000Y-117125000D01*
X120675000Y-116875000D02*
X121325000Y-116875000D01*
X120675000Y-117125000D02*
X120675000Y-116875000D01*
X144325000Y-120125000D02*
X143675000Y-120125000D01*
X144325000Y-119875000D02*
X144325000Y-120125000D01*
X143675000Y-119875000D02*
X144325000Y-119875000D01*
X143675000Y-120125000D02*
X143675000Y-119875000D01*
X142825000Y-120125000D02*
X142175000Y-120125000D01*
X142825000Y-119875000D02*
X142825000Y-120125000D01*
X142175000Y-119875000D02*
X142825000Y-119875000D01*
X142175000Y-120125000D02*
X142175000Y-119875000D01*
X141325000Y-120125000D02*
X140675000Y-120125000D01*
X141325000Y-119875000D02*
X141325000Y-120125000D01*
X140675000Y-119875000D02*
X141325000Y-119875000D01*
X140675000Y-120125000D02*
X140675000Y-119875000D01*
X128175000Y-116875000D02*
X128825000Y-116875000D01*
X128175000Y-117125000D02*
X128175000Y-116875000D01*
X128825000Y-117125000D02*
X128175000Y-117125000D01*
X128825000Y-116875000D02*
X128825000Y-117125000D01*
%LPC*%
D12*
X147200000Y-115500000D03*
X148800000Y-115500000D03*
X151200000Y-115500000D03*
X152800000Y-115500000D03*
X147200000Y-124500000D03*
X148800000Y-124500000D03*
D13*
X141000000Y-124300000D03*
X141000000Y-122700000D03*
D14*
X121460000Y-124011000D03*
X121460000Y-121979000D03*
X126540000Y-122995000D03*
D15*
X122730000Y-123630000D03*
X122730000Y-122360000D03*
X124000000Y-123630000D03*
X124000000Y-122360000D03*
X125270000Y-123630000D03*
X125270000Y-122360000D03*
D16*
X147965000Y-117460000D03*
X152035000Y-117460000D03*
X147965000Y-118730000D03*
X152035000Y-118730000D03*
X147965000Y-120000000D03*
X152035000Y-120000000D03*
X147965000Y-121270000D03*
X152035000Y-121270000D03*
X147965000Y-122540000D03*
X152035000Y-122540000D03*
D17*
X114640000Y-115675000D03*
X114640000Y-124325000D03*
D18*
X118020000Y-115675000D03*
X118020000Y-124325000D03*
D19*
X117650000Y-117025000D03*
X117650000Y-117875000D03*
X117650000Y-118725000D03*
X117650000Y-119575000D03*
X117650000Y-120425000D03*
X117650000Y-121275000D03*
X117650000Y-122125000D03*
X117650000Y-122975000D03*
X119000000Y-122975000D03*
X119000000Y-122125000D03*
X119000000Y-121275000D03*
X119000000Y-120425000D03*
X119000000Y-119575000D03*
X119000000Y-118725000D03*
X119000000Y-117875000D03*
X119000000Y-117025000D03*
D20*
X145300000Y-122550000D03*
X145300000Y-124450000D03*
X142700000Y-124450000D03*
X142700000Y-123500000D03*
X142700000Y-122550000D03*
D21*
X122850000Y-116700000D03*
X125150000Y-115750000D03*
X125150000Y-117650000D03*
D22*
X137300000Y-124200000D03*
X136500000Y-124200000D03*
X135700000Y-124200000D03*
X134900000Y-124200000D03*
X134100000Y-124200000D03*
X133300000Y-124200000D03*
X132500000Y-124200000D03*
X131700000Y-124200000D03*
D23*
X130300000Y-122800000D03*
X130300000Y-122000000D03*
X130300000Y-121200000D03*
X130300000Y-120400000D03*
X130300000Y-119600000D03*
X130300000Y-118800000D03*
X130300000Y-118000000D03*
X130300000Y-117200000D03*
D22*
X131700000Y-115800000D03*
X132500000Y-115800000D03*
X133300000Y-115800000D03*
X134100000Y-115800000D03*
X134900000Y-115800000D03*
X135700000Y-115800000D03*
X136500000Y-115800000D03*
X137300000Y-115800000D03*
D23*
X138700000Y-117200000D03*
X138700000Y-118000000D03*
X138700000Y-118800000D03*
X138700000Y-119600000D03*
X138700000Y-120400000D03*
X138700000Y-121200000D03*
X138700000Y-122000000D03*
X138700000Y-122800000D03*
D12*
X152800000Y-124500000D03*
X151200000Y-124500000D03*
D13*
X127000000Y-117800000D03*
X127000000Y-116200000D03*
X121000000Y-116200000D03*
X121000000Y-117800000D03*
X144000000Y-119200000D03*
X144000000Y-120800000D03*
X142500000Y-119200000D03*
X142500000Y-120800000D03*
X141000000Y-119200000D03*
X141000000Y-120800000D03*
X128500000Y-117800000D03*
X128500000Y-116200000D03*
M02*
